<?xml version="1.0" encoding="iso-8859-1"?>
<!-- Generator: Adobe Illustrator 19.0.0, SVG Export Plug-In . SVG Version: 6.00 Build 0)  -->
<svg version="1.1" id="Layer_1" xmlns="http://www.w3.org/2000/svg" xmlns:xlink="http://www.w3.org/1999/xlink" x="0px" y="0px"
	 viewBox="0 0 512 512" style="enable-background:new 0 0 512 512;" xml:space="preserve">
<g>
	<path style="fill:#5EAC24;" d="M60.427,84.035l50.204,50.204l23.609-23.609L84.035,60.427L60.427,84.035z"/>
	<path style="fill:#5EAC24;" d="M427.965,60.427l-50.204,50.204l23.609,23.609l50.203-50.205L427.965,60.427z"/>
</g>
<path style="fill:#91DC5A;" d="M256,512C114.843,512,0,412.135,0,289.391S114.843,66.783,256,66.783s256,99.864,256,222.609
	S397.157,512,256,512z"/>
<path style="fill:#6DC82A;" d="M512,289.391c0-122.744-114.843-222.609-256-222.609V512C397.157,512,512,412.135,512,289.391z"/>
<path style="fill:#DCF4CA;" d="M256,133.565c-67.511,0-122.435,54.934-122.435,122.435S188.489,378.435,256,378.435
	S378.435,323.5,378.435,256S323.511,133.565,256,133.565z"/>
<path style="fill:#B6E892;" d="M378.435,256c0-67.501-54.924-122.435-122.435-122.435v244.87
	C323.511,378.435,378.435,323.5,378.435,256z"/>
<circle style="fill:#806749;" cx="256" cy="256" r="55.652"/>
<path style="fill:#5F4D37;" d="M311.652,256c0-30.736-24.917-55.652-55.652-55.652v111.304
	C286.736,311.652,311.652,286.736,311.652,256z"/>
<path style="fill:#FFFFFF;" d="M272.696,256c-9.208,0-16.696-7.492-16.696-16.696s7.487-16.696,16.696-16.696
	c9.208,0,16.696,7.492,16.696,16.696S281.904,256,272.696,256z"/>
<path style="fill:#5F4D37;" d="M322.783,445.217H200.348c-9.223,0-16.696-7.473-16.696-16.696s7.473-16.696,16.696-16.696h122.435
	c9.223,0,16.696,7.473,16.696,16.696S332.005,445.217,322.783,445.217z"/>
<circle style="fill:#91DC5A;" cx="50.087" cy="50.087" r="50.087"/>
<path style="fill:#6DC82A;" d="M100.174,50.087C100.174,22.424,77.749,0,50.087,0v100.174
	C77.749,100.174,100.174,77.749,100.174,50.087z"/>
<circle style="fill:#91DC5A;" cx="461.913" cy="50.087" r="50.087"/>
<path style="fill:#6DC82A;" d="M512,50.087C512,22.424,489.576,0,461.913,0v100.174C489.576,100.174,512,77.749,512,50.087z"/>
<g>
</g>
<g>
</g>
<g>
</g>
<g>
</g>
<g>
</g>
<g>
</g>
<g>
</g>
<g>
</g>
<g>
</g>
<g>
</g>
<g>
</g>
<g>
</g>
<g>
</g>
<g>
</g>
<g>
</g>
</svg>
