<?xml version="1.0" encoding="iso-8859-1"?>
<!-- Generator: Adobe Illustrator 19.0.0, SVG Export Plug-In . SVG Version: 6.00 Build 0)  -->
<svg xmlns="http://www.w3.org/2000/svg" xmlns:xlink="http://www.w3.org/1999/xlink" version="1.1" id="Layer_1" x="0px" y="0px" viewBox="0 0 436.969 436.969" style="enable-background:new 0 0 436.969 436.969;" xml:space="preserve" width="512" height="512">
<g>
	<g>
		<path style="fill:#333E48;" d="M177.988,427.783c-4.143,0-7.5-3.357-7.5-7.5V255.127c0-4.142,3.357-7.5,7.5-7.5    c4.142,0,7.5,3.358,7.5,7.5v165.156C185.488,424.426,182.13,427.783,177.988,427.783z"/>
		<rect x="170.488" y="325.785" style="opacity:0.5;fill:#222222;" width="15" height="13.342"/>
		<path style="opacity:0.5;fill:#222222;" d="M177.988,247.627c-4.143,0-7.5,3.358-7.5,7.5v22.5h15v-22.5    C185.488,250.985,182.13,247.627,177.988,247.627z"/>
	</g>
	<g>
		<path style="fill:#333E48;" d="M218.072,325.785H99.643c-3.034,0-5.769-1.827-6.93-4.63c-1.16-2.803-0.519-6.028,1.626-8.173    l58.825-58.825c2.929-2.929,7.678-2.929,10.606,0c2.93,2.929,2.93,7.678,0,10.606l-46.021,46.021h100.323    c4.143,0,7.5,3.358,7.5,7.5C225.572,322.428,222.215,325.785,218.072,325.785z"/>
		<path style="opacity:0.5;fill:#222222;" d="M163.77,254.157c-2.929-2.929-7.678-2.929-10.606,0l-23.47,23.47h21.213l12.863-12.863    C166.7,261.835,166.7,257.086,163.77,254.157z"/>
	</g>
	<path style="fill:#77BC1F;" d="M93.009,436.969c0-16.198-13.027-34.719-18.319-38.484c10.585-0.315,32.975,5.963,39.895,17.578   c1.628-1.884,8.955-16.324,6.513-20.09c9.362,1.569,18.727,14.439,21.575,23.229c5.292-6.278,15.196-23.229,21.168-26.368   c-0.814,5.337-1.086,23.857,2.442,27.312c3.528-6.594,23.61-14.441,31.752-15.697c-6.106,6.906-11.805,22.664-11.805,32.522   C186.23,436.969,110.92,436.969,93.009,436.969z"/>
	<g>
		<g>
			<path style="fill:#FADF8D;" d="M315.596,9.924c-5.706,0-11.276,0.578-16.656,1.679v43.305c3.499-0.42,7.058-0.642,10.67-0.642     c29.819,0,56.202,14.707,72.296,37.261c1.689,1.826,4.097,2.976,6.78,2.976c5.048,0,9.143-4.045,9.238-9.069     C394.309,43.131,358.833,9.924,315.596,9.924z"/>
			<path style="fill:#333E48;" d="M386.487,50.114c-0.234,1.303-0.39,2.482-0.39,3.452c0,10.4-8.432,18.833-18.833,18.833     c-1.624,0-3.197-0.212-4.701-0.601c7.426,5.53,13.961,12.188,19.342,19.728c1.689,1.826,4.097,2.976,6.78,2.976     c5.048,0,9.143-4.045,9.238-9.069C396.827,72.595,392.78,60.603,386.487,50.114z"/>
			<path style="opacity:0.2;fill:#222222;" d="M309.686,30.019c-3.645,0-7.227,0.262-10.746,0.719v24.17     c3.499-0.42,7.058-0.642,10.67-0.642c29.819,0,56.202,14.707,72.296,37.261c1.689,1.826,4.097,2.976,6.78,2.976     c0.543,0,1.071-0.056,1.588-0.146C381.945,57.525,349.035,30.019,309.686,30.019z"/>
		</g>
		<path style="fill:#FF637D;" d="M297.468,103.504c-16.603-10.448-32.6-20.521-41.757-31.556c-0.363-0.58-0.781-1.201-1.279-1.88    c-6.037-8.231-2.482-13.383,2.923-11.105c4.628,2.66,9.988,4.19,15.708,4.19h31.576c17.439,0,31.576-14.138,31.576-31.576    C336.215,14.137,322.078,0,304.639,0h-31.576c-2.115,0-4.179,0.212-6.178,0.608c-27.246,1.988-48.813,24.777-48.813,52.523    c0,35.584,32.301,55.912,63.538,75.57c29.109,18.319,56.604,35.623,56.604,61.933c0,12.633-10.277,22.909-22.909,22.909    c-0.024,0-0.051,0-0.079,0c-6.089-0.02-11.811-2.401-16.12-6.709l-50.527-50.529c-5.814-5.813-15.238-5.813-21.053,0    c-5.813,5.813-5.813,15.239,0,21.053l50.528,50.527c9.941,9.942,23.16,15.422,37.22,15.431h0.007c0.033,0,0.07,0,0.107-0.001    c29.009-0.046,52.597-23.661,52.597-52.681C367.985,147.884,330.522,124.306,297.468,103.504z"/>
		<path style="opacity:0.3;fill:#222222;" d="M277.02,184.746l-28.44-28.441c-5.814-5.813-15.238-5.813-21.053,0    c-5.813,5.813-5.813,15.239,0,21.053l47.502,47.501c2.479-7.434,3.841-15.373,3.841-23.63    C278.869,195.564,278.216,190.054,277.02,184.746z"/>
		<g>
			<path style="fill:#FFFFFF;" d="M322.095,10.825H309.69c-4.982,0-9.022,4.04-9.022,9.023s4.04,9.021,9.022,9.021h12.405     c4.982,0,9.021-4.039,9.021-9.021S327.077,10.825,322.095,10.825z"/>
			<circle style="fill:#333E48;" cx="309.689" cy="19.848" r="5.639"/>
		</g>
	</g>
	<path style="fill:#95D600;" d="M161.895,436.969c0-16.198-13.027-34.719-18.319-38.484c10.585-0.315,32.975,5.963,39.895,17.578   c1.628-1.884,8.955-16.324,6.512-20.09c9.363,1.569,18.728,14.439,21.576,23.229c5.292-6.278,15.196-23.229,21.168-26.368   c-0.813,5.337-1.086,23.857,2.441,27.312c3.529-6.594,23.611-14.441,31.753-15.697c-6.106,6.906-11.805,22.664-11.805,32.522   C255.116,436.969,179.807,436.969,161.895,436.969z"/>
	<g>
		<path style="fill:#FF637D;" d="M203.957,136.317h-35.09c-71.699,0-129.822,58.124-129.822,129.823v7.973    c0,3.117,2.526,5.644,5.643,5.644c1.498,0,2.86-0.586,3.87-1.54c6.724-7.417,16.435-12.076,27.234-12.076h128.165    c35.85,0,64.912-29.062,64.912-64.912C268.869,165.379,239.807,136.317,203.957,136.317z"/>
		<path style="fill:#FF8F9C;" d="M185.852,159.822H172.49c-45.737,0-82.813,37.077-82.813,82.813h96.175    c22.869,0,41.406-18.538,41.406-41.406C227.258,178.361,208.721,159.822,185.852,159.822z"/>
		<path style="opacity:0.2;fill:#222222;" d="M56.417,201.229c-11.047,19.096-17.372,41.265-17.372,64.912v7.973    c0,3.117,2.526,5.644,5.643,5.644c1.498,0,2.86-0.586,3.87-1.54c6.724-7.417,16.435-12.076,27.234-12.076h128.165    c35.85,0,64.912-29.062,64.912-64.912H56.417z"/>
	</g>
</g>















</svg>
